# This file uses centimeters as units for non-parametric coordinates.

mtllib Bun_top.mtl
g default
v 29.952111 4.919892 13.930973
v 29.952111 2.284065 15.042501
v 39.802796 4.919891 9.850686
v 40.588764 2.284064 10.636655
v 43.883083 4.919890 0.000000
v 44.994610 2.284062 0.000000
v 39.802796 4.919888 -9.850684
v 40.588764 2.284061 -10.636652
v 29.952110 4.919887 -13.930972
v 29.952110 2.284060 -15.042498
v 20.101424 4.919888 -9.850683
v 19.315455 2.284061 -10.636650
v 16.021138 4.919890 0.000001
v 14.909613 2.284062 0.000001
v 20.101424 4.919891 9.850685
v 19.315455 2.284064 10.636653
v 29.952111 7.134834 11.293224
v 37.937626 7.134833 7.985515
v 41.245333 7.134832 -0.000000
v 37.937626 7.134831 -7.985515
v 29.952110 7.134830 -11.293223
v 21.966595 7.134831 -7.985513
v 18.658888 7.134832 0.000000
v 21.966595 7.134833 7.985515
v 29.952111 9.526695 5.695885
v 33.979709 9.526695 4.027599
v 35.647995 9.526694 -0.000000
v 33.979709 9.526694 -4.027599
v 29.952110 9.526693 -5.695885
v 25.924512 9.526694 -4.027598
v 24.256226 9.526694 0.000000
v 25.924512 9.526695 4.027598
v 29.942570 10.322223 0.000000
v 29.907779 3.027525 0.000001
v 20.754588 8.265004 0.000000
v 23.448479 8.265005 6.503631
v 29.952111 8.265006 9.197523
v 36.455742 8.265005 6.503631
v 39.149633 8.265004 -0.000000
v 36.455742 8.265003 -6.503631
v 29.952110 8.265003 -9.197523
v 23.448479 8.265003 -6.503629
v 17.171452 5.980595 0.000001
v 20.914819 5.980596 9.037290
v 29.952111 5.980597 12.780659
v 38.989402 5.980596 9.037292
v 42.732769 5.980595 -0.000000
v 38.989402 5.980593 -9.037290
v 29.952110 5.980593 -12.780658
v 20.914819 5.980593 -9.037289
vt 0.946927 0.986589
vt 0.973601 0.922898
vt 0.981316 0.929904
vt 0.972768 0.954967
vt 0.865195 0.917484
vt 0.864287 0.957273
vt 0.957153 0.945203
vt 0.916287 0.928449
vt 0.923293 0.920733
vt 0.922671 0.953694
vt 0.904191 0.958301
vt 0.938287 0.963458
vt 0.914122 0.978756
vt 0.921839 0.985763
vt 0.863374 0.997297
vt 0.970805 0.929057
vt 0.974619 0.932337
vt 0.967670 0.936614
vt 0.966158 0.935491
vt 0.947735 0.954315
vt 0.972146 0.987927
vt 0.979152 0.980212
vt 0.824378 0.956480
vt 0.922446 0.931245
vt 0.925726 0.927431
vt 0.929281 0.973170
vt 0.927768 0.972047
vt 0.947977 0.941511
vt 0.924635 0.979604
vt 0.920820 0.976324
vt 0.986692 0.955502
vt 0.836710 0.928528
vt 0.947462 0.967149
vt 0.969713 0.981230
vt 0.972993 0.977415
vt 0.948891 0.915357
vt 0.893147 0.929816
vt 0.948356 0.929282
vt 0.938592 0.944897
vt 0.908747 0.953158
vt 0.891859 0.986252
vt 0.947083 0.979379
vt 0.979979 0.955123
vt 0.956847 0.963763
vt 0.946548 0.993303
vt 0.835422 0.984965
vt 0.965436 0.974281
vt 0.948513 0.922071
vt 0.928880 0.935892
vt 0.930003 0.934379
vt 0.960539 0.954588
vt 0.915460 0.953537
vt 0.966559 0.972769
vt 0.934901 0.954073
vt 0.963606 0.939932
vt 0.962679 0.939243
vt 0.968043 0.954820
vt 0.962117 0.970217
vt 0.962807 0.969289
vt 0.947230 0.974653
vt 0.931832 0.968728
vt 0.932761 0.969418
vt 0.927397 0.953840
vt 0.933322 0.938443
vt 0.932633 0.939371
vt 0.948210 0.934007
vt 0.971459 0.934282
vt 0.968692 0.931983
vt 0.976699 0.955052
vt 0.970067 0.975302
vt 0.967768 0.978070
vt 0.946998 0.983310
vt 0.926748 0.976678
vt 0.923980 0.974379
vt 0.918740 0.953608
vt 0.925372 0.933358
vt 0.927671 0.930591
vt 0.948442 0.925350
vn 0.363121 0.315632 0.876652
vn 0.363121 0.315632 0.876652
vn 0.363121 0.315632 0.876652
vn 0.363121 0.315632 0.876652
vn 0.876652 0.315633 0.363121
vn 0.876652 0.315633 0.363121
vn 0.876652 0.315633 -0.363121
vn 0.876652 0.315633 -0.363121
vn 0.363121 0.315632 -0.876652
vn 0.363121 0.315632 -0.876652
vn -0.363121 0.315633 -0.876652
vn -0.363121 0.315633 -0.876652
vn -0.876652 0.315632 -0.363121
vn -0.876652 0.315632 -0.363121
vn -0.650930 0.759138 -0.000000
vn -0.460277 0.759138 0.460277
vn -0.594202 0.765732 0.246126
vn -0.594202 0.765732 0.246126
vn -0.876652 0.315633 0.363121
vn -0.876652 0.315633 0.363121
vn 0.460277 0.759138 -0.460277
vn -0.000000 0.759138 -0.650930
vn 0.246126 0.765732 -0.594202
vn 0.246126 0.765732 -0.594202
vn 0.460277 0.759138 0.460277
vn 0.650930 0.759138 -0.000000
vn 0.594202 0.765732 0.246126
vn 0.594202 0.765732 0.246126
vn -0.460277 0.759138 -0.460277
vn -0.246127 0.765732 -0.594202
vn -0.000000 0.759138 0.650930
vn -0.246126 0.765732 0.594202
vn -0.419280 0.907857 -0.000000
vn -0.296476 0.907857 0.296476
vn -0.214593 0.972650 0.088887
vn -0.214593 0.972650 0.088887
vn -0.000000 0.907857 -0.419280
vn -0.296476 0.907857 -0.296476
vn -0.088887 0.972650 -0.214593
vn -0.088887 0.972650 -0.214593
vn 0.419280 0.907857 -0.000000
vn 0.296476 0.907857 -0.296476
vn 0.214593 0.972650 -0.088887
vn 0.214593 0.972650 -0.088887
vn -0.000000 0.907857 0.419280
vn 0.296476 0.907857 0.296476
vn 0.088887 0.972650 0.214593
vn 0.088887 0.972650 0.214593
vn -0.000000 1.000000 -0.000000
vn 0.000000 -1.000000 0.000000
s 1
g bun_bot1
usemtl lambert4SG
f 1/34/1 2/21/2 4/45/3 3/1/4
f 3/1/4 4/45/3 6/14/5 5/29/6
f 5/30/6 6/13/5 8/40/7 7/52/8
f 7/52/8 8/40/7 10/8/9 9/24/10
f 9/25/10 10/9/9 12/36/11 11/48/12
f 11/48/12 12/36/11 14/2/13 13/16/14
f 43/67/15 44/69/16 24/4/17 23/18/18
f 13/17/14 14/3/13 16/31/19 15/43/20
f 15/43/20 16/31/19 2/22/2 1/35/1
f 48/75/21 49/76/22 21/49/23 20/10/24
f 46/72/25 47/73/26 19/26/27 18/42/28
f 49/77/22 50/78/29 22/38/30 21/50/23
f 44/69/16 45/70/31 17/53/32 24/4/17
f 45/71/31 46/72/25 18/42/28 17/47/32
f 47/74/26 48/75/21 20/10/24 19/27/27
f 50/78/29 43/68/15 23/19/18 22/38/30
f 35/55/33 36/57/34 32/51/35 31/7/36
f 41/64/37 42/66/38 30/28/39 29/39/40
f 39/61/41 40/63/42 28/54/43 27/12/44
f 37/58/45 38/60/46 26/33/47 25/44/48
f 36/57/34 37/59/45 25/44/48 32/51/35
f 42/66/38 35/56/33 31/7/36 30/28/39
f 40/63/42 41/65/37 29/39/40 28/54/43
f 38/60/46 39/62/41 27/12/44 26/33/47
f 25/44/48 33/20/49 31/7/36 32/51/35
f 31/7/36 33/20/49 29/39/40 30/28/39
f 29/39/40 33/20/49 27/12/44 28/54/43
f 33/20/49 25/44/48 26/33/47 27/12/44
f 4/46/3 2/23/2 34/6/50 6/15/5
f 6/15/5 34/6/50 10/11/9 8/41/7
f 10/11/9 34/6/50 14/5/13 12/37/11
f 34/6/50 2/23/2 16/32/19 14/5/13
f 23/18/18 24/4/17 36/57/34 35/55/33
f 24/4/17 17/53/32 37/59/45 36/57/34
f 17/47/32 18/42/28 38/60/46 37/58/45
f 18/42/28 19/26/27 39/62/41 38/60/46
f 19/27/27 20/10/24 40/63/42 39/61/41
f 20/10/24 21/49/23 41/65/37 40/63/42
f 21/50/23 22/38/30 42/66/38 41/64/37
f 22/38/30 23/19/18 35/56/33 42/66/38
f 13/17/14 15/43/20 44/69/16 43/67/15
f 15/43/20 1/35/1 45/70/31 44/69/16
f 1/34/1 3/1/4 46/72/25 45/71/31
f 3/1/4 5/29/6 47/73/26 46/72/25
f 5/30/6 7/52/8 48/75/21 47/74/26
f 7/52/8 9/24/10 49/76/22 48/75/21
f 9/25/10 11/48/12 50/78/29 49/77/22
f 11/48/12 13/16/14 43/68/15 50/78/29
