# This file uses centimeters as units for non-parametric coordinates.

mtllib Bun_bot.mtl
g default
v 29.972800 -7.312087 -14.597913
v 29.972800 -4.574972 -14.527626
v 40.295083 -7.312087 -10.322283
v 40.245384 -4.574972 -10.272583
v 44.570713 -7.312079 0.000001
v 44.500426 -4.574970 0.000001
v 40.295083 -7.312083 10.322284
v 40.245384 -4.574968 10.272583
v 29.972798 -7.312082 14.597914
v 29.972798 -4.574966 14.527626
v 19.650514 -7.312083 10.322283
v 19.700215 -4.574967 10.272581
v 15.374888 -7.312084 0.000000
v 15.445175 -4.574971 -0.000000
v 19.650514 -7.312087 -10.322282
v 19.700215 -4.574971 -10.272582
v 29.972800 -10.194141 -12.848493
v 39.058057 -10.194140 -9.085256
v 42.821292 -10.194138 0.000002
v 39.058057 -10.194136 9.085258
v 29.972799 -10.194136 12.848494
v 20.887541 -10.194136 9.085256
v 17.124306 -10.194138 0.000001
v 20.887541 -10.194140 -9.085255
v 29.972799 -10.522869 -5.695883
v 34.000398 -10.522869 -4.027597
v 35.668684 -10.522868 0.000001
v 34.000398 -10.522867 4.027600
v 29.972799 -10.522867 5.695886
v 25.945200 -10.522867 4.027599
v 24.276915 -10.522868 0.000001
v 25.945200 -10.522869 -4.027597
v 29.963258 -10.530019 0.000001
v 29.928467 -4.574969 0.000000
v 19.559493 -6.001187 10.413302
v 29.972798 -6.001185 14.726636
v 40.386104 -6.001188 10.413304
v 44.699435 -6.001188 0.000001
v 40.386104 -6.001192 -10.413304
v 29.972800 -6.001191 -14.726637
v 19.559493 -6.001191 -10.413302
v 15.246166 -6.001188 0.000000
v 19.750779 -8.925470 10.222017
v 29.972798 -8.925469 14.456118
v 40.194818 -8.925470 10.222020
v 44.428916 -8.925472 0.000001
v 40.194818 -8.925474 -10.222018
v 29.972800 -8.925475 -14.456116
v 19.750779 -8.925474 -10.222018
v 15.516682 -8.925472 0.000001
v 39.072403 -10.743216 0.000002
v 36.407192 -10.743215 6.434394
v 29.972799 -10.743214 9.099606
v 23.538406 -10.743215 6.434392
v 20.873195 -10.743216 0.000001
v 23.538406 -10.743217 -6.434391
v 29.972800 -10.743218 -9.099604
v 36.407192 -10.743217 -6.434392
vt 0.946348 0.906858
vt 0.971835 0.846003
vt 0.979207 0.852697
vt 0.971038 0.876644
vt 0.863835 0.835368
vt 0.862968 0.873384
vt 0.956119 0.867315
vt 0.917074 0.851307
vt 0.923768 0.843935
vt 0.923174 0.875427
vt 0.901093 0.874366
vt 0.938093 0.884757
vt 0.915006 0.899373
vt 0.922378 0.906067
vt 0.862095 0.911626
vt 0.969163 0.851888
vt 0.972807 0.855021
vt 0.966168 0.859108
vt 0.964724 0.858035
vt 0.947121 0.876021
vt 0.970444 0.908136
vt 0.977138 0.900764
vt 0.824836 0.872627
vt 0.922958 0.853979
vt 0.926092 0.850334
vt 0.929488 0.894036
vt 0.928044 0.892963
vt 0.947352 0.863788
vt 0.925050 0.900183
vt 0.921404 0.897049
vt 0.984342 0.877155
vt 0.836619 0.845920
vt 0.946860 0.888283
vt 0.968119 0.901737
vt 0.971253 0.898092
vt 0.948226 0.838799
vt 0.890541 0.847150
vt 0.947714 0.852103
vt 0.938384 0.867023
vt 0.909869 0.874916
vt 0.889311 0.901073
vt 0.946498 0.899968
vt 0.977928 0.876793
vt 0.955827 0.885048
vt 0.945987 0.913272
vt 0.835389 0.899843
vt 0.964033 0.895098
vt 0.947864 0.845213
vt 0.929105 0.858419
vt 0.930178 0.856973
vt 0.959354 0.876281
vt 0.916284 0.875278
vt 0.965106 0.893653
vt 0.934858 0.875789
vt 0.948088 0.841239
vt 0.919312 0.852324
vt 0.924652 0.846370
vt 0.912310 0.875054
vt 0.923395 0.903829
vt 0.917440 0.898489
vt 0.946125 0.910832
vt 0.969560 0.905701
vt 0.974899 0.899748
vt 0.981902 0.877017
vt 0.970819 0.848242
vt 0.976772 0.853582
vt 0.947798 0.848238
vt 0.925657 0.855928
vt 0.927886 0.853249
vt 0.919309 0.875343
vt 0.926998 0.897484
vt 0.924320 0.895255
vt 0.946414 0.903833
vt 0.968554 0.896143
vt 0.966325 0.898822
vt 0.974903 0.876727
vt 0.969892 0.856816
vt 0.967214 0.854587
vt 0.933311 0.888662
vt 0.933998 0.889173
vt 0.929298 0.875617
vt 0.934479 0.862240
vt 0.933969 0.862928
vt 0.947524 0.858228
vt 0.960901 0.863410
vt 0.960213 0.862899
vt 0.964914 0.876454
vt 0.959732 0.889830
vt 0.960242 0.889143
vt 0.946687 0.893844
vn -0.000000 0.024926 -0.999689
vn 0.363121 -0.315632 -0.876652
vn 0.363121 -0.315632 -0.876652
vn 0.706887 0.024926 -0.706887
vn 0.876652 -0.315633 -0.363121
vn 0.999689 0.024926 -0.000000
vn 0.876652 -0.315633 0.363121
vn 0.706887 0.024926 0.706887
vn 0.363121 -0.315632 0.876652
vn -0.000000 0.024926 0.999689
vn -0.363121 -0.315633 0.876652
vn -0.706887 0.024927 0.706887
vn -0.999689 0.024926 -0.000000
vn -0.876652 -0.315632 0.363121
vn -0.594202 -0.765732 -0.246126
vn -0.594202 -0.765732 -0.246126
vn -0.626790 -0.462893 -0.626790
vn -0.886414 -0.462893 0.000000
vn -0.876652 -0.315633 -0.363121
vn -0.706887 0.024926 -0.706887
vn 0.246126 -0.765732 0.594202
vn 0.246126 -0.765732 0.594202
vn -0.000000 -0.462893 0.886414
vn 0.626790 -0.462893 0.626790
vn 0.594202 -0.765732 -0.246126
vn 0.594202 -0.765732 -0.246126
vn 0.886414 -0.462893 0.000000
vn 0.626790 -0.462893 -0.626789
vn -0.246127 -0.765732 0.594202
vn -0.626790 -0.462893 0.626789
vn -0.246126 -0.765732 -0.594202
vn 0.000000 -0.462893 -0.886414
vn -0.089256 -0.996009 0.000000
vn -0.063114 -0.996009 -0.063114
vn -0.214593 -0.972650 -0.088887
vn -0.214593 -0.972650 -0.088887
vn -0.000000 -0.996009 0.089256
vn -0.063114 -0.996009 0.063114
vn -0.088887 -0.972650 0.214593
vn -0.088887 -0.972650 0.214593
vn 0.089256 -0.996009 0.000000
vn 0.063114 -0.996009 0.063114
vn 0.214593 -0.972650 0.088888
vn 0.214593 -0.972650 0.088888
vn -0.000000 -0.996009 -0.089256
vn 0.063114 -0.996009 -0.063114
vn 0.088887 -0.972650 -0.214593
vn 0.088887 -0.972650 -0.214593
vn -0.000000 -1.000000 0.000000
vn 0.000000 1.000000 -0.000000
vn -0.246127 -0.765732 0.594202
vn -0.246127 -0.765732 0.594202
vn 0.246126 -0.765732 0.594202
vn 0.594202 -0.765732 0.246127
vn 0.594202 -0.765732 -0.246126
vn 0.246126 -0.765733 -0.594201
vn -0.246126 -0.765732 -0.594202
vn -0.594202 -0.765732 -0.246126
s 1
g bun_top1
usemtl lambert4SG
f 40/62/1 2/21/2 4/45/3 39/61/4
f 39/61/4 4/45/3 6/14/5 38/59/6
f 38/60/6 6/13/5 8/40/7 37/58/8
f 37/58/8 8/40/7 10/8/9 36/56/10
f 36/57/10 10/9/9 12/36/11 35/55/12
f 42/65/13 35/55/12 12/36/11 14/2/14
f 13/17/15 15/43/16 49/76/17 50/77/18
f 42/66/13 14/3/14 16/31/19 41/64/20
f 41/64/20 16/31/19 2/22/2 40/63/1
f 7/52/21 9/24/22 44/68/23 45/70/24
f 3/1/25 5/29/26 46/71/27 47/73/28
f 9/25/22 11/48/29 43/67/30 44/69/23
f 15/43/16 1/35/31 48/74/32 49/76/17
f 1/34/31 3/1/25 47/73/28 48/75/32
f 5/30/26 7/52/21 45/70/24 46/72/27
f 11/48/29 13/16/15 50/78/18 43/67/30
f 55/85/33 56/87/34 32/51/35 31/7/36
f 53/82/37 54/84/38 30/28/39 29/39/40
f 51/79/41 52/81/42 28/54/43 27/12/44
f 57/88/45 58/90/46 26/33/47 25/44/48
f 56/87/34 57/89/45 25/44/48 32/51/35
f 54/84/38 55/86/33 31/7/36 30/28/39
f 52/81/42 53/83/37 29/39/40 28/54/43
f 58/90/46 51/80/41 27/12/44 26/33/47
f 25/44/48 33/20/49 31/7/36 32/51/35
f 31/7/36 33/20/49 29/39/40 30/28/39
f 29/39/40 33/20/49 27/12/44 28/54/43
f 33/20/49 25/44/48 26/33/47 27/12/44
f 4/46/3 2/23/2 34/6/50 6/15/5
f 6/15/5 34/6/50 10/11/9 8/41/7
f 10/11/9 34/6/50 14/5/14 12/37/11
f 34/6/50 2/23/2 16/32/19 14/5/14
f 9/25/22 36/57/10 35/55/12 11/48/29
f 7/52/21 37/58/8 36/56/10 9/24/22
f 5/30/26 38/60/6 37/58/8 7/52/21
f 3/1/25 39/61/4 38/59/6 5/29/26
f 1/34/31 40/62/1 39/61/4 3/1/25
f 15/43/16 41/64/20 40/63/1 1/35/31
f 13/17/15 42/66/13 41/64/20 15/43/16
f 11/48/29 35/55/12 42/65/13 13/16/15
f 44/69/23 43/67/30 22/38/51 21/50/52
f 45/70/24 44/68/23 21/49/52 20/10/53
f 46/72/27 45/70/24 20/10/53 19/27/54
f 47/73/28 46/71/27 19/26/54 18/42/55
f 48/75/32 47/73/28 18/42/55 17/47/56
f 49/76/17 48/74/32 17/53/56 24/4/57
f 50/77/18 49/76/17 24/4/57 23/18/58
f 43/67/30 50/78/18 23/19/58 22/38/51
f 19/27/54 20/10/53 52/81/42 51/79/41
f 20/10/53 21/49/52 53/83/37 52/81/42
f 21/50/52 22/38/51 54/84/38 53/82/37
f 22/38/51 23/19/58 55/86/33 54/84/38
f 23/18/58 24/4/57 56/87/34 55/85/33
f 24/4/57 17/53/56 57/89/45 56/87/34
f 17/47/56 18/42/55 58/90/46 57/88/45
f 18/42/55 19/26/54 51/80/41 58/90/46
